<?xml version="1.0" encoding="utf-8"?>
<!-- Generator: Adobe Illustrator 20.1.0, SVG Export Plug-In . SVG Version: 6.00 Build 0)  -->
<svg version="1.1" id="Layer_1" xmlns="http://www.w3.org/2000/svg" xmlns:xlink="http://www.w3.org/1999/xlink" x="0px" y="0px"
	 viewBox="0 0 15 15" style="enable-background:new 0 0 15 15;" xml:space="preserve">
<style type="text/css">
	.st0{fill:#CE0000;stroke:#000000;stroke-width:0.5;stroke-miterlimit:10;}
</style>
<g>
	<path class="st0" d="M7.5,14.1c-0.2-0.2-0.4-0.4-0.6-0.6c-0.7-0.7-1.5-1.4-2.3-2C4,10.9,3.3,10.4,2.7,9.8C2.3,9.4,1.9,9,1.6,8.6
		c-0.5-0.6-0.8-1.2-1-2c-0.1-0.3-0.1-0.7-0.2-1c0-0.4-0.1-0.7,0-1.1c0-1.4,0.9-2.7,2.2-3.3C2.9,1.1,3.3,1,3.7,0.9
		C4.4,0.9,5.1,1,5.8,1.4C6.2,1.6,6.6,1.9,7,2.3C7.2,2.5,7.3,2.8,7.5,3c0,0,0,0,0,0c0,0,0,0,0,0c0.3-0.5,0.7-0.9,1.1-1.2
		C9.1,1.3,9.7,1.1,10.4,1c1-0.1,2,0.1,2.8,0.7c0.7,0.5,1.1,1.2,1.4,2c0.1,0.4,0.1,0.9,0.1,1.3c0,0.2,0,0.5-0.1,0.7
		c-0.1,0.9-0.4,1.7-0.8,2.4c-0.3,0.5-0.7,0.9-1.1,1.3c-0.5,0.5-1,0.9-1.5,1.4c-0.9,0.8-1.9,1.6-2.8,2.4C8.1,13.5,7.8,13.8,7.5,14.1
		C7.5,14.1,7.5,14.1,7.5,14.1z"/>
</g>
</svg>
